<svg xmlns="http://www.w3.org/2000/svg" viewBox="0 0 742 742"><rect width="742" height="742" rx="163" fill="#EB4C44"/><g transform="translate(115 224)"><path fill="#FFFFFF" fill-rule="evenodd" d="M455.0 213.1L399.0 197.3L398.4 196.0L452.6 6.0C462.0 -26.8 454.2 1.7 455.0 -0.5L509.0 14.8C518.4 17.5 510.7 15.6 511.5 16.0L455.0 213.1ZM319.0 294.0L227.0 294.0C226.8 293.7 226.6 303.8 226.3 293.0C226.1 282.2 225.8 244.3 225.3 229.0C224.8 213.7 224.2 209.7 223.3 201.0C222.5 192.3 221.5 184.5 220.3 177.0C219.2 169.5 217.9 162.7 216.4 156.0C214.8 149.3 213.3 143.8 211.1 137.0C208.9 130.2 205.5 120.8 203.2 115.0C200.9 109.2 198.6 104.6 197.4 102.0C196.2 99.4 196.5 100.4 196.0 99.6L195.0 99.2C192.5 104.5 190.1 108.7 187.6 115.0C185.0 121.3 181.7 130.5 179.6 137.0C177.5 143.5 176.3 147.7 174.8 154.0C173.3 160.3 171.9 167.7 170.7 175.0C169.5 182.3 168.5 189.8 167.7 198.0C166.8 206.2 166.2 215.3 165.7 224.0C165.2 232.7 164.9 238.5 164.7 250.0C164.5 261.5 164.6 285.7 164.5 293.0C164.4 300.3 164.2 293.7 164.0 294.0L71.0 293.9L-0.4 60.0L63.0 40.5L104.0 170.8C104.3 169.9 104.1 173.1 104.9 168.0C105.7 162.9 107.2 148.5 108.7 140.0C110.1 131.5 111.7 124.7 113.7 117.0C115.7 109.3 118.2 101.0 120.7 94.0C123.2 87.0 126.0 80.5 128.7 75.0C131.3 69.5 133.6 65.5 136.7 61.0C139.7 56.5 144.4 50.9 146.8 48.0C149.2 45.1 148.8 45.7 151.0 43.8C153.2 41.9 156.5 38.9 160.0 36.7C163.5 34.5 168.3 32.1 172.0 30.6C175.7 29.0 178.5 28.3 182.0 27.6C185.5 26.9 189.3 26.5 193.0 26.3C196.7 26.2 200.5 26.3 204.0 26.7C207.5 27.1 210.7 27.9 214.0 28.9C217.3 29.9 221.0 31.3 224.0 32.8C227.0 34.3 229.3 35.7 232.0 37.6C234.7 39.5 237.4 41.8 240.0 44.2C242.6 46.6 245.2 49.4 247.4 52.0C249.6 54.6 251.3 57.0 253.3 60.0C255.3 63.0 257.4 66.3 259.4 70.0C261.4 73.7 263.3 77.5 265.3 82.0C267.2 86.5 268.8 89.7 271.1 97.0C273.4 104.3 277.2 117.7 279.2 126.0C281.2 134.3 282.2 140.0 283.3 147.0C284.4 154.0 285.0 164.2 285.7 168.0C286.3 171.8 286.6 169.3 287.0 170.0L327.4 41.0C327.9 40.9 318.4 37.5 329.0 40.7L391.0 59.8C390.0 63.5 399.2 34.3 388.1 71.0C377.0 107.7 335.7 243.0 324.4 280.0C313.1 317.0 321.3 290.7 320.4 293.0C319.5 295.3 334.6 293.8 319.0 294.0ZM418.0 294.0C415.3 294.4 412.5 294.5 410.0 294.3C407.5 294.2 405.2 293.7 403.0 293.2C400.8 292.7 399.3 292.4 397.0 291.4C394.7 290.4 391.7 289.2 389.0 287.1C386.3 285.1 382.7 281.5 380.7 279.0C378.6 276.5 377.8 274.3 376.8 272.0C375.8 269.7 375.1 268.0 374.7 265.0C374.2 262.0 374.0 256.8 374.0 254.0C374.0 251.2 374.3 250.2 374.7 248.0C375.2 245.8 375.7 243.5 376.7 241.0C377.7 238.5 379.4 235.2 380.7 233.0C382.0 230.8 382.7 229.9 384.6 228.0C386.5 226.1 389.8 223.2 392.0 221.7C394.2 220.1 395.5 219.6 398.0 218.7C400.5 217.9 404.3 217.0 407.0 216.7C409.7 216.3 411.7 216.5 414.0 216.7C416.3 216.9 418.5 217.2 421.0 217.9C423.5 218.5 426.5 219.4 429.0 220.6C431.5 221.7 433.6 222.8 436.0 224.7C438.4 226.6 441.6 229.9 443.3 232.0C445.0 234.1 445.5 235.3 446.3 237.0C447.2 238.7 447.8 239.8 448.4 242.0C449.0 244.2 449.7 247.7 450.0 250.0C450.3 252.3 450.5 253.7 450.3 256.0C450.2 258.3 450.0 261.2 449.3 264.0C448.6 266.8 447.2 270.7 446.2 273.0C445.2 275.3 445.0 275.8 443.4 278.0C441.8 280.2 438.3 284.1 436.4 286.0C434.5 287.9 433.7 288.2 432.0 289.3C430.3 290.3 428.3 291.4 426.0 292.2C423.7 293.0 420.7 293.6 418.0 294.0Z"/></g></svg>